<?xml version="1.0" encoding="utf-8"?>
<!-- Generator: Adobe Illustrator 18.1.1, SVG Export Plug-In . SVG Version: 6.00 Build 0)  -->
<svg version="1.1" id="Layer_1" xmlns="http://www.w3.org/2000/svg" xmlns:xlink="http://www.w3.org/1999/xlink" x="0px" y="0px"
	 viewBox="66.5 96 226.9 158.5" enable-background="new 66.5 96 226.9 158.5" xml:space="preserve">
<rect x="66.5" y="96" width="226.9" height="127.9"/>
<g enable-background="new    ">
	<path fill="#FFFFFF" d="M108.1,165.6l8.8-28.4h11.5l8.7,28.4l9.8-28.4h11.9l-17.2,49.4h-8.2l-10.8-34.3l-10.7,34.3h-8.2l-17.2-49.4
		h11.9L108.1,165.6z"/>
	<path fill="#FFFFFF" d="M183.5,156.5c1.2-1.8,1.9-3.5,1.9-5.1c0-1.6-0.5-3-1.6-4.1c-1.1-1.1-2.5-1.7-4.2-1.7
		c-3.1,0-6.1,2.2-8.8,6.6l-8.8-5.2c2.3-3.6,4.8-6.3,7.6-8.1c2.8-1.8,6.3-2.8,10.5-2.8c4.3,0,8,1.4,11.2,4.1
		c3.2,2.7,4.8,6.4,4.8,11.1c0,2.5-0.6,5-1.9,7.3c-1.3,2.3-3.7,5.3-7.2,8.9l-8.9,9.3h19.5v9.9h-34.8v-8.2l14.5-14.8
		C180.1,160.6,182.2,158.3,183.5,156.5z"/>
	<path fill="#FFFFFF" d="M222.8,165.6l8.8-28.4h11.5l8.7,28.4l9.8-28.4h11.9l-17.2,49.4h-8.2l-10.8-34.3l-10.7,34.3h-8.2l-17.2-49.4
		h11.9L222.8,165.6z"/>
</g>
<g enable-background="new    ">
	<path fill="#EA372E" d="M79.7,248.8l4.5-14.6h3.1l4.5,14.6l5.1-14.6h3.7l-7.1,20.3h-3.4l-4.3-13.9h-0.2l-4.3,13.9H78l-7.1-20.3h3.7
		L79.7,248.8z"/>
	<path fill="#EA372E" d="M103.8,254.5v-20.3h3.4v8.8h10.1v-8.8h3.4v20.3h-3.4v-8.3h-10.1v8.3H103.8z"/>
	<path fill="#EA372E" d="M129.2,249.9l-2,4.6h-3.7l8.9-20.3h3.7l8.9,20.3h-3.7l-2-4.6H129.2z M138,246.7l-3.7-8.4l-3.7,8.4H138z"/>
	<path fill="#EA372E" d="M154,237.4v17.2h-3.4v-17.2h-6.2v-3.1h15.7v3.1H154z"/>
</g>
<g enable-background="new    ">
	<path d="M172.8,242.1c0.5-0.7,0.8-1.4,0.8-2.1c0-0.7-0.2-1.2-0.7-1.7c-0.4-0.5-1-0.7-1.7-0.7c-1.3,0-2.5,0.9-3.6,2.7l-3.6-2.1
		c0.9-1.5,2-2.6,3.1-3.3c1.1-0.8,2.6-1.1,4.3-1.1c1.8,0,3.3,0.6,4.6,1.7c1.3,1.1,2,2.6,2,4.5c0,1-0.3,2-0.8,3
		c-0.5,1-1.5,2.2-2.9,3.7l-3.7,3.8h8v4.1h-14.3v-3.4l6-6.1C171.4,243.8,172.3,242.9,172.8,242.1z"/>
</g>
<g enable-background="new    ">
	<path fill="#EA372E" d="M189.3,248.8l4.5-14.6h3.1l4.5,14.6l5.1-14.6h3.7l-7.1,20.3h-3.4l-4.3-13.9h-0.2l-4.3,13.9h-3.4l-7.1-20.3
		h3.7L189.3,248.8z"/>
	<path fill="#EA372E" d="M215.3,249.9l-2,4.6h-3.7l8.9-20.3h3.7l8.9,20.3h-3.7l-2-4.6H215.3z M224.1,246.7l-3.7-8.4l-3.7,8.4H224.1z
		"/>
	<path fill="#EA372E" d="M240,237.4v17.2h-3.4v-17.2h-6.2v-3.1h15.7v3.1H240z"/>
	<path fill="#EA372E" d="M259.2,251.4c1.2,0,2.2-0.2,3-0.6c0.9-0.4,1.7-1,2.7-1.9l2.2,2.3c-2.1,2.4-4.8,3.6-7.8,3.6
		c-3.1,0-5.6-1-7.6-3c-2-2-3-4.5-3-7.5s1-5.5,3.1-7.5s4.7-3,7.8-3s5.8,1.2,7.9,3.5l-2.2,2.4c-1-0.9-1.9-1.6-2.7-1.9
		c-0.9-0.4-1.9-0.6-3-0.6c-2.1,0-3.8,0.7-5.2,2c-1.4,1.3-2.1,3-2.1,5.1s0.7,3.8,2.1,5.2C255.6,250.7,257.3,251.4,259.2,251.4z"/>
	<path fill="#EA372E" d="M271.3,254.5v-20.3h3.4v8.8h10.1v-8.8h3.4v20.3h-3.4v-8.3h-10.1v8.3H271.3z"/>
</g>
<g>
	<rect x="74.8" y="102.8" fill="#FFFFFF" width="13.2" height="13.2"/>
	<rect x="96.7" y="102.8" fill="#FFFFFF" width="13.2" height="13.2"/>
	<rect x="118.7" y="102.8" fill="#FFFFFF" width="13.2" height="13.2"/>
	<rect x="140.5" y="102.8" fill="#FFFFFF" width="13.2" height="13.2"/>
	<rect x="162.4" y="102.8" fill="#FFFFFF" width="13.2" height="13.2"/>
	<rect x="184.4" y="102.8" fill="#FFFFFF" width="13.2" height="13.2"/>
	<rect x="206.3" y="102.8" fill="#FFFFFF" width="13.2" height="13.2"/>
	<rect x="228.2" y="102.8" fill="#FFFFFF" width="13.2" height="13.2"/>
	<rect x="250.1" y="102.8" fill="#FFFFFF" width="13.2" height="13.2"/>
	<rect x="272.1" y="102.8" fill="#FFFFFF" width="13.2" height="13.2"/>
</g>
<g>
	<rect x="74.8" y="205.1" fill="#FFFFFF" width="13.2" height="13.2"/>
	<rect x="96.7" y="205.1" fill="#FFFFFF" width="13.2" height="13.2"/>
	<rect x="118.7" y="205.1" fill="#FFFFFF" width="13.2" height="13.2"/>
	<rect x="140.5" y="205.1" fill="#FFFFFF" width="13.2" height="13.2"/>
	<rect x="162.4" y="205.1" fill="#FFFFFF" width="13.2" height="13.2"/>
	<rect x="184.4" y="205.1" fill="#FFFFFF" width="13.2" height="13.2"/>
	<rect x="206.3" y="205.1" fill="#FFFFFF" width="13.2" height="13.2"/>
	<rect x="228.2" y="205.1" fill="#FFFFFF" width="13.2" height="13.2"/>
	<rect x="250.1" y="205.1" fill="#FFFFFF" width="13.2" height="13.2"/>
	<rect x="272.1" y="205.1" fill="#FFFFFF" width="13.2" height="13.2"/>
</g>
</svg>
