<?xml version="1.0" encoding="utf-8"?>
<!-- Generator: Adobe Illustrator 21.1.0, SVG Export Plug-In . SVG Version: 6.00 Build 0)  -->
<!DOCTYPE svg PUBLIC "-//W3C//DTD SVG 1.1//EN" "http://www.w3.org/Graphics/SVG/1.1/DTD/svg11.dtd">
<svg version="1.1" id="Layer_1" xmlns="http://www.w3.org/2000/svg" xmlns:xlink="http://www.w3.org/1999/xlink" x="0px" y="0px" width="200px" height="125px"
	 viewBox="0 0 500 500" style="enable-background:new 0 0 500 500;" xml:space="preserve">
<style type="text/css">
	.st0{fill:#EA372E;}
	.st1{fill:#FFFFFF;}
	.st2{font-family:'Montserrat-Bold';}
	.st3{font-size:98.0943px;}
	.st4{font-family:'Montserrat-Regular';}
	.st5{font-size:40.3134px;}
	.st6{fill:none;stroke:#000000;stroke-width:0.8408;stroke-miterlimit:10;}
</style>
<rect x="92.4" y="133.4" width="315.2" height="177.6"/>
<text transform="matrix(1 0 0 1 120.369 259.1849)" class="st1 st2 st3">W2W</text>
<text transform="matrix(1 0 0 1 98.0195 353.4951)"><tspan x="0" y="0" class="st0 st4 st5">WHAT</tspan><tspan x="127.8" y="0" class="st2 st5">2</tspan><tspan x="152.2" y="0" class="st0 st4 st5">WATCH</tspan></text>
<g>
	<rect x="103.9" y="142.8" class="st1" width="18.3" height="18.3"/>
	<rect x="134.3" y="142.8" class="st1" width="18.3" height="18.3"/>
	<rect x="164.8" y="142.8" class="st1" width="18.3" height="18.3"/>
	<rect x="195.2" y="142.8" class="st1" width="18.3" height="18.3"/>
	<rect x="225.6" y="142.8" class="st1" width="18.3" height="18.3"/>
	<rect x="256.1" y="142.8" class="st1" width="18.3" height="18.3"/>
	<rect x="286.5" y="142.8" class="st1" width="18.3" height="18.3"/>
	<rect x="317" y="142.8" class="st1" width="18.3" height="18.3"/>
	<rect x="347.4" y="142.8" class="st1" width="18.3" height="18.3"/>
	<rect x="377.9" y="142.8" class="st1" width="18.3" height="18.3"/>
</g>
<g>
	<rect x="103.9" y="284.8" class="st1" width="18.3" height="18.3"/>
	<rect x="134.3" y="284.8" class="st1" width="18.3" height="18.3"/>
	<rect x="164.8" y="284.8" class="st1" width="18.3" height="18.3"/>
	<rect x="195.2" y="284.8" class="st1" width="18.3" height="18.3"/>
	<rect x="225.6" y="284.8" class="st1" width="18.3" height="18.3"/>
	<rect x="256.1" y="284.8" class="st1" width="18.3" height="18.3"/>
	<rect x="286.5" y="284.8" class="st1" width="18.3" height="18.3"/>
	<rect x="317" y="284.8" class="st1" width="18.3" height="18.3"/>
	<rect x="347.4" y="284.8" class="st1" width="18.3" height="18.3"/>
	<rect x="377.9" y="284.8" class="st1" width="18.3" height="18.3"/>
</g>
</svg>
